<svg width="20" height="26" viewBox="0 0 20 26" fill="none" xmlns="http://www.w3.org/2000/svg">
<path d="M18.5 10.3275C18.5 15.2221 14.6646 19.1351 10 19.1351C5.33537 19.1351 1.5 15.2221 1.5 10.3275C1.5 5.43301 5.33537 1.52002 10 1.52002C14.6646 1.52002 18.5 5.43301 18.5 10.3275Z" stroke="#197BEB" stroke-width="2"/>
<path d="M2.5 22.8182C2.5 22.0508 3.2127 21.4821 3.96093 21.6525L8.84687 22.765C9.60591 22.9379 10.3941 22.9379 11.1531 22.765L16.0391 21.6525C16.7873 21.4821 17.5 22.0508 17.5 22.8182V22.8182C17.5 23.3761 17.114 23.8599 16.5699 23.9838L11.6652 25.1007C10.5691 25.3502 9.43092 25.3502 8.33483 25.1007L3.43007 23.9838C2.88601 23.8599 2.5 23.3761 2.5 22.8182V22.8182Z" fill="#197BEB"/>
</svg>
