<svg width="26" height="26" viewBox="0 0 26 26" fill="none" xmlns="http://www.w3.org/2000/svg">
<circle cx="13" cy="13" r="12" fill="#197BEB" stroke="white" stroke-width="2"/>
<path d="M13 15.3892C14.1598 15.3892 15.1 14.4192 15.1 13.2226C15.1 12.026 14.1598 11.0559 13 11.0559C11.8402 11.0559 10.9 12.026 10.9 13.2226C10.9 14.4192 11.8402 15.3892 13 15.3892Z" fill="white"/>
<path d="M18.6 7.44444H16.381L15.513 6.46944C15.3826 6.32167 15.2237 6.2036 15.0465 6.12277C14.8693 6.04194 14.6777 6.00012 14.484 6H11.516C11.124 6 10.746 6.17333 10.48 6.46944L9.619 7.44444H7.4C6.63 7.44444 6 8.09444 6 8.88889V17.5556C6 18.35 6.63 19 7.4 19H18.6C19.37 19 20 18.35 20 17.5556V8.88889C20 8.09444 19.37 7.44444 18.6 7.44444ZM13 16.8333C11.068 16.8333 9.5 15.2156 9.5 13.2222C9.5 11.2289 11.068 9.61111 13 9.61111C14.932 9.61111 16.5 11.2289 16.5 13.2222C16.5 15.2156 14.932 16.8333 13 16.8333Z" fill="white"/>
</svg>
