<svg width="22" height="26" viewBox="0 0 22 26" fill="none" xmlns="http://www.w3.org/2000/svg">
<rect x="7" y="9.87988" width="8" height="2.08" rx="1.04" fill="#F1F1F1"/>
<path d="M13.5209 3.04825L19.6067 8.29051C20.5128 9.576 21 11.111 21 12.6856V20.6582V22.18C21 23.4503 19.9703 24.48 18.7 24.48H16.225H15.3V20.3227C15.3 18.8592 14.1136 17.6727 12.65 17.6727H11H9.35C7.88645 17.6727 6.7 18.8592 6.7 20.3227V24.48H5.6375H3.575C2.15287 24.48 1 23.3272 1 21.905V20.6582V13.1377C1 11.3268 1.73276 9.59304 3.03136 8.33105L8.57099 3.03552C10.1173 2.21164 11.9758 2.21489 13.5209 3.04825Z" stroke="#F1F1F1" stroke-width="2"/>
</svg>
