<svg width="6" height="8" viewBox="0 0 6 8" fill="none" xmlns="http://www.w3.org/2000/svg">
<path d="M2.625 7.37558C2.15135 6.97157 1.71232 6.52865 1.3125 6.05146C0.7125 5.33483 3.29585e-07 4.26758 3.29585e-07 3.25058C-0.000259882 2.73119 0.153566 2.2234 0.44201 1.79147C0.730455 1.35954 1.14055 1.02288 1.6204 0.824108C2.10025 0.625335 2.62828 0.57338 3.13767 0.674818C3.64706 0.776256 4.1149 1.02653 4.482 1.39396C4.72641 1.63728 4.92013 1.92666 5.05196 2.24535C5.18378 2.56404 5.2511 2.90571 5.25 3.25058C5.25 4.26758 4.5375 5.33483 3.9375 6.05146C3.53768 6.52865 3.09865 6.97157 2.625 7.37558ZM2.625 2.12558C2.32663 2.12558 2.04048 2.24411 1.8295 2.45509C1.61853 2.66607 1.5 2.95222 1.5 3.25058C1.5 3.54895 1.61853 3.8351 1.8295 4.04608C2.04048 4.25706 2.32663 4.37558 2.625 4.37558C2.92337 4.37558 3.20952 4.25706 3.4205 4.04608C3.63147 3.8351 3.75 3.54895 3.75 3.25058C3.75 2.95222 3.63147 2.66607 3.4205 2.45509C3.20952 2.24411 2.92337 2.12558 2.625 2.12558Z" fill="#070723" fill-opacity="0.5"/>
</svg>
