<svg width="24" height="25" viewBox="0 0 24 25" fill="none" xmlns="http://www.w3.org/2000/svg">
<path d="M23.2243 8.95108L16.0296 7.85612L12.8133 1.0282C12.7255 0.841259 12.581 0.689923 12.4024 0.597934C11.9547 0.366479 11.4106 0.559358 11.1868 1.0282L7.97055 7.85612L0.77582 8.95108C0.577461 8.98076 0.396105 9.07868 0.257255 9.22705C0.0893918 9.40772 -0.0031083 9.65079 7.97568e-05 9.90284C0.00326781 10.1549 0.101883 10.3953 0.274257 10.5713L5.47974 15.8858L4.24992 23.3903C4.22108 23.5649 4.23953 23.7444 4.30317 23.9086C4.36681 24.0727 4.47311 24.2149 4.60999 24.319C4.74688 24.4231 4.90889 24.485 5.07764 24.4976C5.24639 24.5102 5.41514 24.473 5.56475 24.3903L12.0001 20.8473L18.4354 24.3903C18.611 24.4882 18.8151 24.5209 19.0106 24.4853C19.5037 24.3962 19.8352 23.9066 19.7502 23.3903L18.5204 15.8858L23.7259 10.5713C23.8675 10.4259 23.9611 10.236 23.9894 10.0282C24.0659 9.50895 23.7202 9.02823 23.2243 8.95108Z" fill="#F1F1F1"/>
</svg>
